<svg xmlns="http://www.w3.org/2000/svg" viewBox="0 0 320 320"><defs><linearGradient id="amber" x2=".9" y2="1"><stop stop-color="#7a9096"/><stop offset="1" stop-color="#98aeb4"/></linearGradient><linearGradient id="wood"><stop stop-color="#ac8056"/><stop offset="1" stop-color="#c89e6d"/></linearGradient><filter id="shadow"><feGaussianBlur stdDeviation="6"/></filter></defs><rect width="320" height="320" fill="#dbcfb9"/><path d="M0 254h320v66H0z" fill="#000" opacity=".025"/><ellipse cx="160" cy="263" rx="100" ry="12" fill="#2e3437" opacity=".16" filter="url(#shadow)"/><ellipse cx="160" cy="258" rx="71" ry="12" fill="#242728" opacity=".2"/><path d="M150 128h20v116h-20z" fill="#c0d6dc"/><path d="M155 128h8v116h-8z" fill="#bbd1d7"/><ellipse cx="160" cy="245" rx="43" ry="12" fill="#a7bdc3"/><ellipse cx="160" cy="241" rx="42" ry="9" fill="#899fa5"/><path d="M83 143c3-61 29-92 77-92s74 31 77 92z" fill="url(#amber)"/><ellipse cx="160" cy="143" rx="77" ry="13" fill="#b1c7cd"/><ellipse cx="160" cy="144" rx="65" ry="8" fill="#f6d69a"/><path d="M157 43h6v10h-6z" fill="#89623a"/><path d="M98 113c8-27 19-39 37-46" fill="none" stroke="#ffe1a6" stroke-width="6" stroke-linecap="round" opacity=".4"/><path d="M184 247q57 20 63-6" fill="none" stroke="#625449" stroke-width="3"/></svg>