<svg xmlns="http://www.w3.org/2000/svg" viewBox="0 0 320 320"><defs><linearGradient id="amber" x2=".9" y2="1"><stop stop-color="#ecc27c"/><stop offset="1" stop-color="#d29542"/></linearGradient><linearGradient id="wood"><stop stop-color="#ac8056"/><stop offset="1" stop-color="#c89e6d"/></linearGradient><filter id="shadow"><feGaussianBlur stdDeviation="6"/></filter></defs><rect width="320" height="320" fill="#d1d6c9"/><path d="M0 254h320v66H0z" fill="#000" opacity=".025"/><ellipse cx="160" cy="263" rx="100" ry="12" fill="#2e3437" opacity=".16" filter="url(#shadow)"/><path d="m95 69 123-8-8 112-106 3z" fill="#8ca598" stroke="#6e877a" stroke-width="4"/><path d="m110 78 3 82m28-84v85m31-87-3 85m29-87-6 84" stroke="#a5beb1" stroke-width="8"/><path d="m93 178 116-9 29 30-122 13z" fill="#b4cdc0"/><path d="m93 178 23 34 1 10-24-28z" fill="#7d9689"/><path d="m116 212 122-13v11l-121 12z" fill="#9bb4a7"/><path d="m101 195-7 60h11l15-48m102-4 9 54h-11l-18-48m-100 9 3 56h12l3-57" fill="#afc8bb"/></svg>