<svg xmlns="http://www.w3.org/2000/svg" viewBox="0 0 320 320"><defs><linearGradient id="amber" x2=".9" y2="1"><stop stop-color="#ecc27c"/><stop offset="1" stop-color="#d29542"/></linearGradient><linearGradient id="wood"><stop stop-color="#ac8056"/><stop offset="1" stop-color="#c89e6d"/></linearGradient><filter id="shadow"><feGaussianBlur stdDeviation="6"/></filter></defs><rect width="320" height="320" fill="#d0d5c6"/><path d="M0 254h320v66H0z" fill="#000" opacity=".025"/><ellipse cx="160" cy="263" rx="100" ry="12" fill="#2e3437" opacity=".16" filter="url(#shadow)"/><path d="m103 175 37-24h87l28 40-5 44H90z" fill="#9cac90"/><path d="m100 176 109 0 43 18-110 14z" fill="#7e8e72"/><rect x="137" y="143" width="64" height="44" rx="9" fill="#3e4d48"/><path d="m146 152 46 0m-46 9h46m-46 9h46" stroke="#68766a" stroke-width="4"/><path d="M103 189 57 76h67l51 90" fill="none" stroke="#58675e" stroke-width="7"/><path d="M56 76h68" stroke="#303e37" stroke-width="12" stroke-linecap="round"/><circle cx="113" cy="230" r="26" fill="#35433b"/><circle cx="228" cy="231" r="25" fill="#35433b"/><circle cx="113" cy="230" r="12" fill="#9aab99"/><circle cx="228" cy="231" r="11" fill="#9aab99"/></svg>