<svg xmlns="http://www.w3.org/2000/svg" viewBox="0 0 320 320"><defs><linearGradient id="amber" x2=".9" y2="1"><stop stop-color="#ecc27c"/><stop offset="1" stop-color="#d29542"/></linearGradient><linearGradient id="wood"><stop stop-color="#ac8056"/><stop offset="1" stop-color="#c89e6d"/></linearGradient><filter id="shadow"><feGaussianBlur stdDeviation="6"/></filter></defs><rect width="320" height="320" fill="#d7cbb9"/><path d="M0 254h320v66H0z" fill="#000" opacity=".025"/><ellipse cx="160" cy="263" rx="100" ry="12" fill="#2e3437" opacity=".16" filter="url(#shadow)"/><path d="m82 52 146-8 22 16v207l-22-10H82z" fill="#8b6d50"/><path d="M86 57h139v199H86z" fill="#bf9c73"/><path d="M100 69h112v48H100zm0 61h112v49H100zm0 62h112v48H100z" fill="#715c47"/><path d="M100 107h112v10H100zm0 62h112v10H100zm0 61h112v10H100z" fill="#d2b18a"/><path d="M86 57h13v199H86zm126 0h13v199h-13z" fill="#c7a680"/><path d="M83 52h145v13H83z" fill="#ddbf96"/><path d="M91 256h13v13H91zm118 0h13v13h-13z" fill="#68523e"/><path d="M120 70v36m60-36v36m-50 25v36m59-36v36m-70 26v34m63-34v34" stroke="#9a7a58" stroke-width="2" opacity=".35"/></svg>