<svg xmlns="http://www.w3.org/2000/svg" viewBox="0 0 320 320"><defs><linearGradient id="amber" x2=".9" y2="1"><stop stop-color="#ecc27c"/><stop offset="1" stop-color="#d29542"/></linearGradient><linearGradient id="wood"><stop stop-color="#ac8056"/><stop offset="1" stop-color="#c89e6d"/></linearGradient><filter id="shadow"><feGaussianBlur stdDeviation="6"/></filter></defs><rect width="320" height="320" fill="#cbd0cc"/><path d="M0 254h320v66H0z" fill="#000" opacity=".025"/><ellipse cx="160" cy="263" rx="100" ry="12" fill="#2e3437" opacity=".16" filter="url(#shadow)"/><path d="m97 103 18-20h71l19 20h46q15 0 15 16v99H53v-99q0-16 15-16z" fill="#697780"/><path d="M56 133h207v69H56z" fill="#364b57"/><rect x="68" y="111" width="38" height="14" rx="3" fill="#afbdbe"/><rect x="213" y="92" width="23" height="12" rx="3" fill="#a6b1b4"/><path d="M126 91h50v21h-50z" fill="#273b47"/><circle cx="170" cy="165" r="58" fill="#83949a"/><circle cx="170" cy="165" r="49" fill="#253b49"/><circle cx="170" cy="165" r="37" fill="#527482"/><circle cx="170" cy="165" r="24" fill="#203b4d"/><path d="M153 149q18-14 33-3" fill="none" stroke="#9cbcc6" stroke-width="6" stroke-linecap="round"/><path d="M65 142v45" stroke="#536c77" stroke-width="5"/><circle cx="244" cy="120" r="5" fill="#d2ad8f"/></svg>