<svg xmlns="http://www.w3.org/2000/svg" viewBox="0 0 320 320"><defs><linearGradient id="amber" x2=".9" y2="1"><stop stop-color="#ecc27c"/><stop offset="1" stop-color="#d29542"/></linearGradient><linearGradient id="wood"><stop stop-color="#ac8056"/><stop offset="1" stop-color="#c89e6d"/></linearGradient><filter id="shadow"><feGaussianBlur stdDeviation="6"/></filter></defs><rect width="320" height="320" fill="#dbd0bd"/><path d="M0 254h320v66H0z" fill="#000" opacity=".025"/><ellipse cx="160" cy="263" rx="100" ry="12" fill="#2e3437" opacity=".16" filter="url(#shadow)"/><path d="m95 169-12 91h16l23-88m94-3 21 91h-16l-25-86m-50 3v80h15l3-81" fill="#86684d"/><ellipse cx="160" cy="156" rx="105" ry="42" fill="#987955"/><ellipse cx="160" cy="147" rx="105" ry="41" fill="#c1a077"/><path d="M74 145q85 27 171 0M90 129q71 18 143 0m-125 39q54 10 109-1" fill="none" stroke="#a68760" stroke-width="2" opacity=".6"/><ellipse cx="189" cy="143" rx="18" ry="10" fill="none" stroke="#927d60" stroke-width="3" opacity=".3"/></svg>